<svg xmlns="http://www.w3.org/2000/svg" viewBox="0 0 64 64">
  <defs>
    <radialGradient id="bg" cx="35%" cy="30%" r="80%">
      <stop offset="0" stop-color="#3a3a3a"/><stop offset="1" stop-color="#161616"/>
    </radialGradient>
    <radialGradient id="apple" cx="35%" cy="32%" r="70%">
      <stop offset="0" stop-color="#f4877a"/><stop offset=".45" stop-color="#d94a3d"/><stop offset="1" stop-color="#8f2a24"/>
    </radialGradient>
    <radialGradient id="leaf" cx="35%" cy="30%" r="80%">
      <stop offset="0" stop-color="#8fd36a"/><stop offset="1" stop-color="#3e8a35"/>
    </radialGradient>
    <linearGradient id="stem" x1="0" y1="0" x2="1" y2="1">
      <stop offset="0" stop-color="#8c5a3c"/><stop offset="1" stop-color="#4a2c1c"/>
    </linearGradient>
    <filter id="clay" x="-20%" y="-20%" width="140%" height="140%">
      <feTurbulence type="fractalNoise" baseFrequency=".9" numOctaves="2" result="n"/>
      <feColorMatrix in="n" type="matrix" values="0 0 0 0 0  0 0 0 0 0  0 0 0 0 0  0 0 0 .08 0" result="grain"/>
      <feComposite in="grain" in2="SourceGraphic" operator="in" result="g2"/>
      <feMerge><feMergeNode in="SourceGraphic"/><feMergeNode in="g2"/></feMerge>
    </filter>
    <filter id="soft" x="-30%" y="-30%" width="160%" height="160%">
      <feDropShadow dx="0" dy="2.5" stdDeviation="2" flood-color="#000" flood-opacity=".5"/>
    </filter>
  </defs>
  <rect width="64" height="64" rx="14" fill="url(#bg)"/>
  <g filter="url(#soft)">
    <!-- lumpy clay apple body -->
    <path d="M32 21c-4-4-13-5-17 2-5 8-1 22 6 27 3 2 6 1 8 0 1-.5 3-.5 4 0 2 1 5 2 8 0 8-5 12-19 7-27-4-7-12-6-16-2z" fill="url(#apple)" filter="url(#clay)"/>
    <!-- dent highlight -->
    <ellipse cx="24" cy="29" rx="4.5" ry="6" fill="#fff" opacity=".18" transform="rotate(-20 24 29)"/>
    <!-- stem -->
    <path d="M32.5 22c-.5-4 1-7 3-9" fill="none" stroke="url(#stem)" stroke-width="3" stroke-linecap="round"/>
    <!-- leaf -->
    <path d="M34 17c4-6 11-5 12-3-2 5-8 7-12 3z" fill="url(#leaf)" filter="url(#clay)"/>
  </g>
</svg>
